<svg width="48" height="48" viewBox="0 0 48 48" fill="none" xmlns="http://www.w3.org/2000/svg">
<rect width="48" height="48" rx="24" fill="#FFCF52"/>
<path fill-rule="evenodd" clip-rule="evenodd" d="M26.2687 27.5742C25.2083 28.2342 23.9564 28.6154 22.6154 28.6154C18.7919 28.6154 15.6923 25.5159 15.6923 21.6924C15.6923 17.8689 18.7919 14.7693 22.6154 14.7693C26.4389 14.7693 29.5385 17.8689 29.5385 21.6924C29.5385 23.5069 28.8404 25.1583 27.6982 26.3928L32.9604 31.655C33.3209 32.0155 33.3209 32.6 32.9604 32.9605C32.5999 33.321 32.0155 33.321 31.655 32.9605L26.2687 27.5742ZM27.6923 21.6924C27.6923 24.4963 25.4193 26.7693 22.6154 26.7693C19.8115 26.7693 17.5385 24.4963 17.5385 21.6924C17.5385 18.8885 19.8115 16.6154 22.6154 16.6154C25.4193 16.6154 27.6923 18.8885 27.6923 21.6924Z" fill="white"/>
</svg>
