<svg width="20" height="20" viewBox="0 0 20 20" fill="none" xmlns="http://www.w3.org/2000/svg">
<path d="M13.1646 1.76437C13.2954 1.76437 13.4275 1.77113 13.5617 1.78398C14.527 1.87667 15.4545 2.3049 16.1077 2.95774C16.7623 3.61126 17.1701 4.53403 17.226 5.48927C17.286 6.51352 16.951 7.44915 16.283 8.12296L10.2707 14.1555C9.36543 15.0681 7.88782 15.0708 6.97712 14.1609C6.53626 13.7198 6.29291 13.1333 6.29156 12.5088C6.29022 11.8844 6.53154 11.2965 6.97038 10.8547L11.1794 6.69686C11.5185 6.35995 12.0659 6.36604 12.3995 6.70633C12.7339 7.0473 12.7298 7.59528 12.3901 7.93083L8.18712 12.0826C8.07926 12.1915 8.01657 12.3438 8.01725 12.5054C8.01725 12.6671 8.08061 12.8194 8.19453 12.9337C8.30913 13.048 8.4608 13.1103 8.62191 13.1103L8.62258 13.1103C8.78369 13.1103 8.93536 13.0473 9.04928 12.9323L15.0615 6.89982C15.7242 6.23142 15.6433 4.93724 14.8903 4.18495C14.5202 3.81557 13.9621 3.56255 13.3965 3.50775C13.0783 3.47866 12.4797 3.48678 12.0739 3.8954L5.31278 10.6288C4.73508 11.2099 4.44522 12.0488 4.49915 12.9858C4.55308 13.9167 4.94405 14.811 5.57231 15.4388C6.89555 16.7607 9.1841 16.8737 10.3739 15.6743L15.2415 10.7695C15.5779 10.4299 16.1239 10.4299 16.4616 10.7668C16.7993 11.1044 16.8007 11.6524 16.4643 11.9913L11.5967 16.8961C9.73754 18.7714 6.35358 18.6624 4.35489 16.666C3.42936 15.7412 2.85436 14.4362 2.77616 13.0859C2.69325 11.6497 3.16107 10.3419 4.09334 9.40294L10.8545 2.66955C11.4396 2.0803 12.2499 1.76437 13.1646 1.76437Z" fill="#232229"/>
</svg>
