<svg width="32" height="32" viewBox="0 0 32 32" fill="none" xmlns="http://www.w3.org/2000/svg">
<path d="M18.6667 13.3942V11.7942C19.4 11.4831 20.15 11.2498 20.9167 11.0942C21.6833 10.9387 22.4889 10.8609 23.3333 10.8609C23.9111 10.8609 24.4778 10.9053 25.0333 10.9942C25.5889 11.0831 26.1333 11.1942 26.6667 11.3276V12.7942C26.1333 12.5942 25.5944 12.4442 25.05 12.3442C24.5056 12.2442 23.9333 12.1942 23.3333 12.1942C22.4889 12.1942 21.6778 12.2998 20.9 12.5109C20.1222 12.722 19.3778 13.0164 18.6667 13.3942ZM18.6667 20.7276V19.0942C19.4 18.7942 20.15 18.5692 20.9167 18.4192C21.6833 18.2692 22.4889 18.1942 23.3333 18.1942C23.9111 18.1942 24.4778 18.2387 25.0333 18.3276C25.5889 18.4165 26.1333 18.5276 26.6667 18.6609V20.1276C26.1333 19.9276 25.5944 19.7776 25.05 19.6776C24.5056 19.5776 23.9333 19.5276 23.3333 19.5276C22.4889 19.5276 21.6778 19.6276 20.9 19.8276C20.1222 20.0276 19.3778 20.3276 18.6667 20.7276ZM18.6667 17.0609V15.4609C19.4 15.1498 20.15 14.9164 20.9167 14.7609C21.6833 14.6053 22.4889 14.5276 23.3333 14.5276C23.9111 14.5276 24.4778 14.572 25.0333 14.6609C25.5889 14.7498 26.1333 14.8609 26.6667 14.9942V16.4609C26.1333 16.2609 25.5944 16.1109 25.05 16.0109C24.5056 15.9109 23.9333 15.8609 23.3333 15.8609C22.4889 15.8609 21.6778 15.9664 20.9 16.1776C20.1222 16.3887 19.3778 16.6831 18.6667 17.0609ZM8.26666 22.5276C9.45702 22.5276 10.6157 22.6665 11.7428 22.9442C12.8698 23.222 13.9778 23.6387 15.0667 24.1942V9.96089C14.0667 9.29423 12.982 8.77756 11.8127 8.41089C10.6434 8.04423 9.4614 7.86089 8.26666 7.86089C7.42222 7.86089 6.59444 7.96645 5.78333 8.17756C4.97222 8.38867 4.15555 8.64978 3.33333 8.96089V23.4276C4.02222 23.1165 4.80555 22.8887 5.68333 22.7442C6.56111 22.5998 7.42222 22.5276 8.26666 22.5276ZM17.0667 24.1942C18.1778 23.6387 19.2667 23.222 20.3333 22.9442C21.4 22.6665 22.5333 22.5276 23.7333 22.5276C24.5778 22.5276 25.45 22.5942 26.35 22.7276C27.25 22.8609 28.0222 23.0387 28.6667 23.2609V8.96089C27.9111 8.57056 27.1131 8.28964 26.2726 8.11813C25.4321 7.94664 24.5857 7.86089 23.7333 7.86089C22.5333 7.86089 21.3722 8.04423 20.25 8.41089C19.1278 8.77756 18.0667 9.29423 17.0667 9.96089V24.1942ZM16.1077 27.703C14.9596 26.8711 13.7209 26.2085 12.3916 25.7153C11.0624 25.222 9.6874 24.9754 8.26666 24.9754C7.48475 24.9754 6.71682 25.0785 5.96286 25.2848C5.20889 25.4911 4.45556 25.7261 3.7029 25.9899C3.06396 26.3097 2.43707 26.2817 1.82223 25.9057C1.20739 25.5298 0.899963 24.9733 0.899963 24.2363V8.82176C0.899963 8.36283 1.00286 7.93919 1.20866 7.55086C1.41446 7.16255 1.72316 6.86298 2.13476 6.65216C3.09323 6.214 4.08313 5.89721 5.10446 5.70179C6.1258 5.50639 7.16696 5.40869 8.22796 5.40869C9.64121 5.40869 11.0121 5.60073 12.3406 5.98479C13.6691 6.36884 14.9111 6.96231 16.0667 7.76523C17.2 6.97487 18.4198 6.38453 19.7261 5.99419C21.0324 5.60386 22.381 5.40869 23.772 5.40869C24.8254 5.40869 25.8591 5.5111 26.8732 5.71593C27.8872 5.92077 28.8734 6.23285 29.8319 6.65216C30.2435 6.86298 30.5578 7.16255 30.7747 7.55086C30.9916 7.93919 31.1 8.36283 31.1 8.82176V24.4435C31.1 25.177 30.7841 25.7147 30.1522 26.0567C29.5203 26.3986 28.8908 26.3764 28.2638 25.9899C27.5333 25.7039 26.7911 25.4633 26.0371 25.2682C25.2832 25.073 24.5152 24.9754 23.7333 24.9754C22.3305 24.9754 20.9928 25.2307 19.7201 25.7414C18.4474 26.252 17.2433 26.9059 16.1077 27.703Z" fill="#F15D36"/>
</svg>
