<svg width="48" height="48" viewBox="0 0 48 48" fill="none" xmlns="http://www.w3.org/2000/svg">
<g clip-path="url(#clip0_360_654)">
<path d="M34.8465 28.5851L35.8853 40.8358C32.7832 45.3135 23.9999 44.9624 23.9999 44.9624C23.9999 44.9624 15.2166 45.292 12.1146 40.8358L13.1534 28.5851C11.2062 28.0421 9.47785 26.903 8.21097 25.3278C6.94409 23.7525 6.20222 21.8202 6.08948 19.8018C6.08948 19.8018 6.08948 14.4645 10.911 12.566C10.911 12.566 10.5671 6.53375 15.0447 4.04062C15.0447 4.04062 20.2101 1.17495 23.9999 5.22271C27.7898 1.15346 32.9551 4.04062 32.9551 4.04062C37.4328 6.53375 37.0889 12.566 37.0889 12.566C41.9104 14.4645 41.9104 19.8018 41.9104 19.8018C41.7976 21.8202 41.0558 23.7525 39.7889 25.3278C38.522 26.903 36.7937 28.0421 34.8465 28.5851Z" stroke="#F15D36" stroke-width="3.58209" stroke-miterlimit="10"/>
<path d="M12.4369 36.5947C12.4369 36.5947 18.7485 38.5219 23.9999 38.4144C27.9066 38.2079 31.7815 37.5981 35.5629 36.5947" stroke="#F15D36" stroke-width="3.58209" stroke-miterlimit="10"/>
<path d="M30.7127 22.9899C29.9326 24.0773 28.9458 25.0001 27.8087 25.7058C26.6716 26.4114 25.4065 26.8859 24.0858 27.1021H23.9999C22.6792 26.8859 21.4141 26.4114 20.277 25.7058C19.1399 25.0001 18.1531 24.0773 17.373 22.9899C16.8285 22.1803 14.9157 19.3075 16.1623 16.6138C16.4983 15.8971 17.0029 15.2725 17.633 14.7934C18.263 14.3143 18.9998 13.995 19.7802 13.8627C20.5928 13.7923 21.4103 13.9235 22.1601 14.2447C22.91 14.5658 23.5689 15.0671 24.0787 15.7039C24.5849 15.0724 25.2381 14.5744 25.9811 14.2534C26.7242 13.9325 27.5345 13.7983 28.3414 13.8627C29.1217 13.995 29.8585 14.3143 30.4885 14.7934C31.1186 15.2725 31.6232 15.8971 31.9593 16.6138C33.17 19.3433 31.2572 22.209 30.7127 22.9899Z" fill="#F15D36"/>
<path d="M38.2783 20.4896C37.7983 21.8078 35.5559 21.9797 34.6962 21.5212C34.6315 21.5081 34.5704 21.4812 34.5171 21.4424C33.8007 20.9409 34.1445 18.0322 35.7278 17.6525C36.0761 17.5909 36.4342 17.6162 36.7704 17.7262C37.1066 17.8362 37.4104 18.0274 37.655 18.283C37.9662 18.5473 38.1918 18.8983 38.3028 19.2913C38.4138 19.6843 38.4052 20.1014 38.2783 20.4896Z" fill="#F15D36"/>
<path d="M32.2388 10.1588C31.7588 11.477 29.5235 11.649 28.6567 11.1904C28.5946 11.176 28.5362 11.1492 28.4847 11.1116C27.7683 10.6101 28.1122 7.70149 29.6883 7.32179C30.0377 7.25894 30.3973 7.28363 30.7348 7.39364C31.0723 7.50365 31.3774 7.69557 31.6226 7.95223C31.935 8.21563 32.1609 8.56699 32.2708 8.96056C32.3807 9.35413 32.3695 9.77166 32.2388 10.1588Z" fill="#F15D36"/>
<path d="M10.1517 21.0053C10.6317 22.3235 12.8669 22.5026 13.7338 22.037C13.7958 22.0226 13.8543 21.9958 13.9058 21.9582C14.6222 21.4567 14.2855 18.548 12.7022 18.1683C12.3539 18.1067 11.9957 18.132 11.6596 18.242C11.3234 18.352 11.0196 18.5432 10.775 18.7988C10.4637 19.0631 10.2382 19.4141 10.1272 19.8071C10.0162 20.2001 10.0248 20.6172 10.1517 21.0053Z" fill="#F15D36"/>
<path d="M16.1839 10.6746C16.6567 11.9928 18.8991 12.1647 19.766 11.7062C19.828 11.6918 19.8865 11.665 19.9379 11.6274C20.6543 11.1259 20.3104 8.21727 18.7343 7.83756C18.3849 7.77472 18.0254 7.7994 17.6878 7.90942C17.3503 8.01943 17.0453 8.21134 16.8 8.46801C16.4876 8.73141 16.2618 9.08277 16.1519 9.47634C16.042 9.8699 16.0531 10.2874 16.1839 10.6746Z" fill="#F15D36"/>
</g>
<defs>
<clipPath id="clip0_360_654">
<rect width="48" height="48" fill="white"/>
</clipPath>
</defs>
</svg>
