<svg width="32" height="32" viewBox="0 0 32 32" fill="none" xmlns="http://www.w3.org/2000/svg">
<path d="M10.6667 8.00008C9.93029 8.00008 9.33333 8.59704 9.33333 9.33342C9.33333 10.0698 9.93029 10.6667 10.6667 10.6667H21.3333C22.0697 10.6667 22.6667 10.0698 22.6667 9.33342C22.6667 8.59704 22.0697 8.00008 21.3333 8.00008H10.6667Z" fill="#F15D36"/>
<path d="M9.33333 14.6667C9.33333 13.9304 9.93029 13.3334 10.6667 13.3334H21.3333C22.0697 13.3334 22.6667 13.9304 22.6667 14.6667C22.6667 15.4031 22.0697 16.0001 21.3333 16.0001H10.6667C9.93029 16.0001 9.33333 15.4031 9.33333 14.6667Z" fill="#F15D36"/>
<path d="M10.6667 18.6667C9.93029 18.6667 9.33333 19.2637 9.33333 20.0001C9.33333 20.7365 9.93029 21.3334 10.6667 21.3334H16C16.7364 21.3334 17.3333 20.7365 17.3333 20.0001C17.3333 19.2637 16.7364 18.6667 16 18.6667H10.6667Z" fill="#F15D36"/>
<path fill-rule="evenodd" clip-rule="evenodd" d="M6.66667 2.66675C5.19391 2.66675 4 3.86066 4 5.33342V26.6667C4 28.1395 5.19391 29.3334 6.66667 29.3334H25.3333C26.8061 29.3334 28 28.1395 28 26.6667V5.33341C28 3.86066 26.8061 2.66675 25.3333 2.66675H6.66667ZM25.3333 5.33341H6.66667L6.66667 26.6667H18.0829L25.3333 18.8121V5.33341ZM25.3333 26.6667H21.712L25.3333 22.7436V26.6667Z" fill="#F15D36"/>
</svg>
