<svg width="20" height="20" viewBox="0 0 20 20" fill="none" xmlns="http://www.w3.org/2000/svg">
<path d="M8.33333 15C7.8731 15 7.5 14.6269 7.5 14.1666L7.5 8.33329C7.5 7.87306 7.8731 7.49996 8.33333 7.49996C8.79357 7.49996 9.16667 7.87306 9.16667 8.33329L9.16667 14.1666C9.16667 14.6269 8.79357 15 8.33333 15Z" fill="#1E202C"/>
<path d="M10.8333 14.1666C10.8333 14.6269 11.2064 15 11.6667 15C12.1269 15 12.5 14.6269 12.5 14.1666V8.33329C12.5 7.87306 12.1269 7.49996 11.6667 7.49996C11.2064 7.49996 10.8333 7.87306 10.8333 8.33329V14.1666Z" fill="#1E202C"/>
<path fill-rule="evenodd" clip-rule="evenodd" d="M6.79412 2.99016L6.16667 4.16663H3.33333C2.8731 4.16663 2.5 4.53972 2.5 4.99996C2.5 5.4602 2.8731 5.83329 3.33333 5.83329H3.38053L4.06391 17.5485C4.08962 17.9891 4.45445 18.3333 4.89583 18.3333H15.1042C15.5456 18.3333 15.9104 17.9891 15.9361 17.5485L16.6195 5.83329H16.6667C17.1269 5.83329 17.5 5.4602 17.5 4.99996C17.5 4.53972 17.1269 4.16663 16.6667 4.16663H13.8333L13.2059 2.99016C12.7714 2.1755 11.9233 1.66663 11 1.66663H9C8.07672 1.66663 7.2286 2.1755 6.79412 2.99016ZM9 3.33329C8.69224 3.33329 8.40953 3.50292 8.26471 3.77447L8.05556 4.16663H11.9444L11.7353 3.77447C11.5905 3.50292 11.3078 3.33329 11 3.33329H9ZM14.95 5.83329H5.05003L5.68197 16.6666H14.318L14.95 5.83329Z" fill="#1E202C"/>
</svg>