<svg width="25" height="24" viewBox="0 0 25 24" fill="none" xmlns="http://www.w3.org/2000/svg">
<path fill-rule="evenodd" clip-rule="evenodd" d="M14.7873 12.1262C16.1117 11.343 17 9.90021 17 8.25C17 5.76472 14.9853 3.75 12.5 3.75C10.0147 3.75 8 5.76472 8 8.25C8 9.90021 8.88827 11.343 10.2127 12.1262C6.66419 13.1233 4.0625 16.3828 4.0625 20.25C4.0625 20.7678 4.48223 21.1875 5 21.1875C5.51777 21.1875 5.9375 20.7678 5.9375 20.25C5.9375 16.6256 8.87563 13.6875 12.5 13.6875C16.1244 13.6875 19.0625 16.6256 19.0625 20.25C19.0625 20.7678 19.4822 21.1875 20 21.1875C20.5178 21.1875 20.9375 20.7678 20.9375 20.25C20.9375 16.3828 18.3358 13.1233 14.7873 12.1262ZM15.125 8.25C15.125 9.69975 13.9497 10.875 12.5 10.875C11.0503 10.875 9.875 9.69975 9.875 8.25C9.875 6.80025 11.0503 5.625 12.5 5.625C13.9497 5.625 15.125 6.80025 15.125 8.25Z" fill="#A6ACC4"/>
</svg>